<svg width="2632" height="2894" viewBox="0 0 2632 2894" fill="none" xmlns="http://www.w3.org/2000/svg">
<path d="M1183.12 1798.12L982.05 1446.24L630.175 1496.51C630.175 1496.51 382.853 1598.59 278.3 1724.64C189.017 1832.29 147.604 2114.81 147.604 2114.81C147.604 2114.81 314.27 2265.31 479.372 2300.79C679.748 2343.86 982.05 2149.99 982.05 2149.99L1183.12 1798.12Z" fill="#FFEEF3"/>
<path d="M1535 1798.12H1183.12L982.05 2149.99C982.05 2149.99 961.01 2410.84 1032.32 2552.13C1113.86 2713.71 1384.19 2853.74 1384.19 2853.74C1384.19 2853.74 1643.67 2707.76 1736.07 2552.13C1818.71 2412.94 1836.6 2149.99 1836.6 2149.99L1535 1798.12Z" fill="#FFEEF3"/>
<path d="M1736.07 1446.24L1535 1798.12L1836.6 2149.99C1836.6 2149.99 2082.21 2223.59 2238.75 2200.26C2386.62 2178.21 2590.62 2049.45 2590.62 2049.45C2590.62 2049.45 2528.79 1817.72 2439.82 1697.58C2348.57 1574.37 2138.21 1446.24 2138.21 1446.24H1736.07Z" fill="#FFEEF3"/>
<path d="M1535 1094.37L1736.07 1446.24H2138.21C2138.21 1446.24 2402.97 1339.56 2490.09 1194.9C2581.79 1042.62 2540.35 742.49 2540.35 742.49C2540.35 742.49 2299.88 633.643 2138.21 641.955C1970.71 650.567 1736.07 792.752 1736.07 792.752L1535 1094.37Z" fill="#FFEEF3"/>
<path d="M1183.12 1094.37H1535L1736.07 792.752C1736.07 792.752 1760.63 500.395 1685.8 340.348C1602.66 162.515 1333.93 38.7405 1333.93 38.7405C1333.93 38.7405 1065.19 162.515 982.05 340.348C907.224 500.395 931.782 792.752 931.782 792.752L1183.12 1094.37Z" fill="#FFEEF3"/>
<path d="M982.05 1446.24L1183.12 1094.37L931.782 792.752C931.782 792.752 673.081 633.869 499.48 672.117C318.621 711.965 42.041 883.243 42.041 883.243C42.041 883.243 159.18 1241.5 278.3 1345.7C390.823 1444.14 630.175 1496.51 630.175 1496.51L982.05 1446.24Z" fill="#FFEEF3"/>
<path d="M982.05 1446.24C1060.57 1583.66 1104.6 1660.7 1183.12 1798.12M982.05 1446.24C1060.57 1308.82 1104.6 1231.78 1183.12 1094.37M982.05 1446.24C844.634 1465.87 630.175 1496.51 630.175 1496.51M982.05 1446.24C1060.57 1583.66 1183.12 1798.12 1183.12 1798.12M982.05 1446.24L1183.12 1798.12M982.05 1446.24L630.175 1496.51M982.05 1446.24L1183.12 1094.37M1183.12 1798.12C1320.54 1798.12 1535 1798.12 1535 1798.12M1183.12 1798.12C1104.6 1935.53 982.05 2149.99 982.05 2149.99M1183.12 1798.12H1535M1183.12 1798.12L982.05 2149.99M1535 1798.12L1736.07 1446.24M1535 1798.12L1836.6 2149.99M1736.07 1446.24L1535 1094.37M1736.07 1446.24H2138.21M1535 1094.37C1535 1094.37 1320.54 1094.37 1183.12 1094.37M1535 1094.37L1736.07 792.752M1535 1094.37H1183.12M1183.12 1094.37C1084.97 976.578 931.782 792.752 931.782 792.752M1183.12 1094.37L931.782 792.752M1736.07 792.752C1736.07 792.752 1760.63 500.395 1685.8 340.348C1602.66 162.515 1333.93 38.7405 1333.93 38.7405C1333.93 38.7405 1065.19 162.515 982.05 340.348C907.224 500.395 931.782 792.752 931.782 792.752M1736.07 792.752C1736.07 792.752 1970.71 650.567 2138.21 641.955C2299.88 633.643 2540.35 742.49 2540.35 742.49C2540.35 742.49 2581.79 1042.62 2490.09 1194.9C2402.97 1339.56 2138.21 1446.24 2138.21 1446.24M2138.21 1446.24C2138.21 1446.24 2348.57 1574.37 2439.82 1697.58C2528.79 1817.72 2590.62 2049.45 2590.62 2049.45C2590.62 2049.45 2386.62 2178.21 2238.75 2200.26C2082.21 2223.59 1836.6 2149.99 1836.6 2149.99M1836.6 2149.99C1836.6 2149.99 1818.71 2412.94 1736.07 2552.13C1643.67 2707.76 1384.19 2853.74 1384.19 2853.74C1384.19 2853.74 1113.86 2713.71 1032.32 2552.13C961.01 2410.84 982.05 2149.99 982.05 2149.99M982.05 2149.99C982.05 2149.99 679.748 2343.86 479.372 2300.79C314.27 2265.31 147.604 2114.81 147.604 2114.81C147.604 2114.81 189.017 1832.29 278.3 1724.64C382.853 1598.59 630.175 1496.51 630.175 1496.51M931.782 792.752C931.782 792.752 673.081 633.869 499.48 672.117C318.621 711.965 42.041 883.243 42.041 883.243C42.041 883.243 159.18 1241.5 278.3 1345.7C390.823 1444.14 630.175 1496.51 630.175 1496.51" stroke="#2B1204" stroke-width="70.3752"/>
<path d="M992.105 1446.24L1097.67 1622.18L1203.23 1798.12H1519.92L1731.04 1446.24L1519.92 1094.37H1203.23L992.105 1446.24Z" fill="#5D0F2E"/>
<path d="M1379.17 1938.87V2290.75V2466.69M956.918 1692.56L499.479 1974.06M921.73 1199.93L429.104 1023.99M1343.98 883.243V355.429M1801.42 1164.74L2329.23 918.43M1766.23 1692.56L2223.67 1903.68M1801.42 1235.12L2258.86 1164.74M1731.04 1129.56L2082.92 848.055M1801.42 1657.37L2188.48 1762.93M1731.04 1762.93L2082.92 2009.25M1449.54 1974.06L1555.11 2396.31M1273.61 1974.06L1203.23 2396.31M992.105 1798.12L675.417 2044.43M851.355 1657.37L499.479 1762.93M851.355 1270.31L429.104 1235.12M921.73 1129.56L605.042 883.243M1414.36 883.243L1449.54 460.992M1273.61 883.243L1203.23 460.992M992.105 1446.24L1203.23 1094.37H1519.92L1731.04 1446.24L1519.92 1798.12H1203.23L1097.67 1622.18L992.105 1446.24Z" stroke="#2B1204" stroke-width="35.1876"/>
</svg>
