<svg width="50" height="50" viewBox="0 0 50 50" fill="none" xmlns="http://www.w3.org/2000/svg">
<path d="M29.7559 26.3623C29.7559 26.3623 33.4238 26.6243 38.6636 29.5062C43.9035 32.3882 45.4755 39.6367 45.4755 39.6367" stroke="#EEEEEE" stroke-width="0.69865"/>
<path d="M3.52612 7.11816C3.52612 7.11816 7.20336 7.10537 12.6439 9.58775C18.0845 12.0701 20.1936 19.1809 20.1936 19.1809" stroke="#EEEEEE" stroke-width="0.69865"/>
<path d="M5.85254 42.7109C5.85254 42.7109 5.98618 39.0361 8.68321 33.6987C11.3802 28.3613 18.5694 26.537 18.5694 26.537" stroke="#EEEEEE" stroke-width="0.69865"/>
<path d="M33.1604 49.2954C33.1604 49.2954 29.9701 47.4667 26.5013 42.5954C23.0326 37.7241 24.764 30.512 24.764 30.512" stroke="#EEEEEE" stroke-width="0.69865"/>
<path d="M29.9999 18.0466C29.9999 18.0466 33.2709 10.1442 37.7907 8.4427C42.1545 6.79989 49.5981 10.2162 49.5981 10.2162" stroke="#EEEEEE" stroke-width="0.69865"/>
<path d="M19.4508 9.24533C18.7159 12.5869 20.1495 17.9785 20.1495 17.9785L21.8961 20.4237H27.66L29.4066 17.9785C29.4066 17.9785 30.7876 12.598 30.1052 9.24533C29.319 5.3819 25.04 0.512207 25.04 0.512207C25.04 0.512207 20.3205 5.29067 19.4508 9.24533Z" fill="#EEEEEE" stroke="#1B2422" stroke-width="0.69865"/>
<path d="M37.3944 14.3022C34.0118 14.8161 29.4943 18.0897 29.4943 18.0897L27.8392 20.5978L29.9086 25.9774L32.8179 26.7297C32.8179 26.7297 38.3354 26.0868 41.2196 24.2463C44.5431 22.1254 47.5519 16.3834 47.5519 16.3834C47.5519 16.3834 41.3976 13.6941 37.3944 14.3022Z" fill="#EEEEEE" stroke="#1B2422" stroke-width="0.69865"/>
<path d="M38.2784 33.9035C36.9424 30.7537 32.6514 27.1883 32.6514 27.1883L29.8114 26.2063L25.1124 29.5441L25.1045 32.5491C25.1045 32.5491 27.0945 37.7353 29.5923 40.0735C32.4706 42.7678 38.7791 44.2599 38.7791 44.2599C38.7791 44.2599 39.8595 37.6312 38.2784 33.9035Z" fill="#EEEEEE" stroke="#1B2422" stroke-width="0.69865"/>
<path d="M8.38886 25.0087C11.3526 26.7181 16.9254 26.9793 16.9254 26.9793L19.7839 26.0525L21.5241 20.5576L19.7203 18.1542C19.7203 18.1542 15.0079 15.2132 11.6057 14.8515C7.68512 14.4346 1.75078 17.0436 1.75078 17.0436C1.75078 17.0436 4.88133 22.9856 8.38886 25.0087Z" fill="#EEEEEE" stroke="#1B2422" stroke-width="0.69865"/>
<path d="M20.4133 40.3578C22.8846 37.9916 24.6966 32.7152 24.6966 32.7152L24.6076 29.7115L19.8203 26.5015L17.0078 27.5598C17.0078 27.5598 12.8644 31.2596 11.564 34.4243C10.0655 38.071 10.9075 44.4986 10.9075 44.4986C10.9075 44.4986 17.4886 43.1581 20.4133 40.3578Z" fill="#EEEEEE" stroke="#1B2422" stroke-width="0.69865"/>
<path d="M23.8173 20.0745L23.2933 14.4853L22.2454 9.24543M24.8653 20.0745V14.4853V6.62549M25.9133 20.0745L26.4373 14.4853L27.3106 9.24543" stroke="#1B2422" stroke-width="0.69865"/>
<path d="M28.4005 27.8036L32.0884 32.036L35.9978 35.6789M27.5495 28.4153L30.812 32.9535L35.3998 39.3354M26.6986 29.027L29.5356 33.8711L31.885 38.6354" stroke="#1B2422" stroke-width="0.69865"/>
<path d="M19.8863 24.1768L14.4214 22.8929L9.12064 22.217M20.2201 23.1834L14.9222 21.4028L7.47185 18.8989M20.554 22.19L15.4229 19.9128L10.7343 17.4157" stroke="#1B2422" stroke-width="0.69865"/>
<path d="M28.8269 21.7946L34.0136 19.6472L38.7122 17.102M29.1356 22.7961L34.4768 21.1494L41.9877 18.8337M29.4444 23.7975L34.9399 22.6516L40.2045 21.9424" stroke="#1B2422" stroke-width="0.69865"/>
<path d="M22.7752 29.0473L19.8172 33.8185L17.4878 38.6277M21.94 28.4144L18.5643 32.8691L13.8174 39.1335M21.1047 27.7814L17.3115 31.9197L13.4508 35.5685" stroke="#1B2422" stroke-width="0.69865"/>
<path d="M28.2393 20.0103L28.3633 20.3306L30.4688 25.769L30.6055 26.1245L30.3018 26.353L25.3887 30.0366L25.1074 30.2485L24.8125 30.0552L19.7246 26.7222L19.4102 26.5161L19.5195 26.1558L21.2734 20.3667L21.3818 20.0103H28.2393Z" fill="#C31952" stroke="#1B2422" stroke-width="1.00444"/>
</svg>
